<!DOCTYPE svg PUBLIC "-//W3C//DTD SVG 1.1//EN" "http://www.w3.org/Graphics/SVG/1.1/DTD/svg11.dtd">
<!-- Uploaded to: SVG Repo, www.svgrepo.com, Transformed by: SVG Repo Mixer Tools -->
<svg fill="#ffffff" height="800px" width="800px" version="1.1" id="Capa_1" xmlns="http://www.w3.org/2000/svg" xmlns:xlink="http://www.w3.org/1999/xlink" viewBox="-48.94 -48.94 587.30 587.30" xml:space="preserve" stroke="#ffffff">
<g id="SVGRepo_bgCarrier" stroke-width="0"/>
<g id="SVGRepo_tracerCarrier" stroke-linecap="round" stroke-linejoin="round"/>
<g id="SVGRepo_iconCarrier"> <g> <path d="M235.652,290.339c4.996,4.993,13.104,4.993,18.1,0L448.834,95.265c3.664-3.666,4.756-9.171,2.771-13.949 c-1.976-4.788-6.643-7.902-11.821-7.902H49.627c-5.178,0-9.846,3.114-11.828,7.902c-1.977,4.778-0.885,10.283,2.779,13.949 L235.652,290.339z"/> <path d="M484.545,119.344c-2.956-1.219-6.358-0.542-8.619,1.721L273.81,323.182c-7.72,7.719-18.193,12.06-29.107,12.06 c-10.913,0-21.388-4.341-29.1-12.06L13.494,121.073c-2.262-2.263-5.663-2.941-8.618-1.713C1.928,120.578,0,123.463,0,126.657 v256.722c0,18.019,14.609,32.628,32.629,32.628h424.163c18.019,0,32.628-14.609,32.628-32.628V126.649 C489.42,123.455,487.491,120.57,484.545,119.344z"/> </g> </g>
</svg>